<?xml version="1.0" standalone="no"?>
<!DOCTYPE svg PUBLIC "-//W3C//DTD SVG 20010904//EN"
 "http://www.w3.org/TR/2001/REC-SVG-20010904/DTD/svg10.dtd">
<svg version="1.0" xmlns="http://www.w3.org/2000/svg"
 width="600.000000pt" height="600.000000pt" viewBox="0 0 600.000000 600.000000"
 preserveAspectRatio="xMidYMid meet">
<metadata>
Created by potrace 1.16, written by Peter Selinger 2001-2019
</metadata>
<g transform="translate(0.000000,600.000000) scale(0.100000,-0.100000)"
fill="#000000" stroke="none">
<path d="M0 3000 l0 -3000 3000 0 3000 0 0 3000 0 3000 -3000 0 -3000 0 0
-3000z m3740 2375 l0 -185 365 0 365 0 0 -180 0 -180 185 0 185 0 0 -185 0
-185 180 0 180 0 2 -547 3 -548 183 -3 182 -2 0 -1460 0 -1460 -180 0 -180 0
-2 183 -3 182 -182 3 -183 2 0 180 0 180 -185 0 -185 0 0 -180 0 -180 -180 0
-180 0 -2 -182 -3 -183 -362 -3 -363 -2 0 365 0 365 -370 0 -370 0 0 -365 0
-365 -365 0 -365 0 0 185 0 185 -180 0 -180 0 0 180 0 180 -185 0 -185 0 0
-180 0 -180 -182 -2 -183 -3 0 -183 0 -182 -182 0 -183 0 0 1460 0 1460 183 2
182 3 3 548 2 547 180 0 180 0 0 185 0 185 185 0 185 0 0 180 0 180 365 0 365
0 0 185 0 185 730 0 730 0 0 -185z"/>
<path d="M1920 3365 l0 -365 360 0 360 0 0 365 0 365 -360 0 -360 0 0 -365z"/>
<path d="M3380 3365 l0 -365 360 0 360 0 0 365 0 365 -360 0 -360 0 0 -365z"/>
<path d="M1185 2262 c-2 -2 -4 -82 -5 -178 l-1 -174 366 0 365 0 -2 175 -3
176 -358 2 c-197 1 -360 1 -362 -1z"/>
<path d="M2650 2085 l0 -175 360 0 360 0 0 175 0 175 -360 0 -360 0 0 -175z"/>
<path d="M4110 2085 l0 -175 365 0 365 0 0 175 0 175 -365 0 -365 0 0 -175z"/>
<path d="M820 1720 l0 -180 178 2 177 3 0 175 0 175 -177 3 -178 2 0 -180z"/>
<path d="M1920 1720 l0 -180 360 0 360 0 0 180 0 180 -360 0 -360 0 0 -180z"/>
<path d="M3380 1720 l0 -180 360 0 360 0 0 180 0 180 -360 0 -360 0 0 -180z"/>
<path d="M4842 1723 l3 -178 178 -3 177 -2 0 180 0 180 -180 0 -180 0 2 -177z"/>
</g>
</svg>
