<?xml version="1.0" standalone="no"?>
<!DOCTYPE svg PUBLIC "-//W3C//DTD SVG 20010904//EN"
 "http://www.w3.org/TR/2001/REC-SVG-20010904/DTD/svg10.dtd">
<svg version="1.0" xmlns="http://www.w3.org/2000/svg"
 width="291.000000pt" height="294.000000pt" viewBox="0 0 291.000000 294.000000"
 preserveAspectRatio="xMidYMid meet">
<metadata>
Created by potrace 1.16, written by Peter Selinger 2001-2019
</metadata>
<g transform="translate(0.000000,294.000000) scale(0.100000,-0.100000)"
fill="#000000" stroke="none">
<path d="M900 1807 c0 -29 -5 -58 -12 -65 -9 -9 -9 -12 0 -12 16 0 16 -152 0
-168 -9 -9 -9 -12 0 -12 7 0 12 -13 12 -30 l0 -30 175 0 175 0 1 30 c0 17 0
75 0 130 0 55 0 125 0 155 l-1 55 -175 0 -175 0 0 -53z"/>
<path d="M1632 1678 l3 -183 183 -3 182 -2 0 185 0 185 -185 0 -185 0 2 -182z"/>
<path d="M520 1025 l0 -85 180 0 180 0 0 85 0 85 -180 0 -180 0 0 -85z"/>
<path d="M1270 1025 l0 -85 180 0 180 0 0 85 0 85 -180 0 -180 0 0 -85z"/>
<path d="M2010 1025 l0 -85 185 0 185 0 0 85 0 85 -185 0 -185 0 0 -85z"/>
<path d="M330 835 l0 -95 85 0 85 0 0 63 c0 36 5 68 12 75 9 9 9 12 0 12 -7 0
-12 9 -12 20 0 18 -7 20 -85 20 l-85 0 0 -95z"/>
<path d="M900 910 c0 -11 -5 -20 -12 -20 -9 0 -9 -3 0 -12 7 -7 12 -39 12 -75
l0 -63 174 0 174 0 4 73 c6 128 23 117 -178 117 -167 0 -174 -1 -174 -20z"/>
<path d="M1643 923 c-9 -3 -13 -32 -13 -94 l0 -89 185 0 185 0 0 95 0 95 -172
-1 c-95 0 -179 -3 -185 -6z"/>
<path d="M2393 923 c-9 -3 -13 -32 -13 -94 l0 -89 95 0 95 0 0 95 0 95 -82 -1
c-46 0 -89 -3 -95 -6z"/>
</g>
</svg>
